<svg id="visual" viewBox="0 0 900 450" width="900" height="450" xmlns="http://www.w3.org/2000/svg" xmlns:xlink="http://www.w3.org/1999/xlink" version="1.1"><rect x="0" y="0" width="900" height="450" fill="#535759"></rect><path d="M0 150L15 148.8C30 147.7 60 145.3 90 147.5C120 149.7 150 156.3 180 157.8C210 159.3 240 155.7 270 155.2C300 154.7 330 157.3 360 157.3C390 157.3 420 154.7 450 149.7C480 144.7 510 137.3 540 135.8C570 134.3 600 138.7 630 137.3C660 136 690 129 720 132C750 135 780 148 810 149.3C840 150.7 870 140.3 885 135.2L900 130L900 0L885 0C870 0 840 0 810 0C780 0 750 0 720 0C690 0 660 0 630 0C600 0 570 0 540 0C510 0 480 0 450 0C420 0 390 0 360 0C330 0 300 0 270 0C240 0 210 0 180 0C150 0 120 0 90 0C60 0 30 0 15 0L0 0Z" fill="#60646d"></path><path d="M0 112L15 111.3C30 110.7 60 109.3 90 110.8C120 112.3 150 116.7 180 120.8C210 125 240 129 270 129.5C300 130 330 127 360 126.8C390 126.7 420 129.3 450 130.3C480 131.3 510 130.7 540 126.2C570 121.7 600 113.3 630 112.5C660 111.7 690 118.3 720 121.8C750 125.3 780 125.7 810 122.2C840 118.7 870 111.3 885 107.7L900 104L900 0L885 0C870 0 840 0 810 0C780 0 750 0 720 0C690 0 660 0 630 0C600 0 570 0 540 0C510 0 480 0 450 0C420 0 390 0 360 0C330 0 300 0 270 0C240 0 210 0 180 0C150 0 120 0 90 0C60 0 30 0 15 0L0 0Z" fill="#475c8a"></path><path d="M0 95L15 93.5C30 92 60 89 90 91.2C120 93.3 150 100.7 180 104.8C210 109 240 110 270 110C300 110 330 109 360 109.5C390 110 420 112 450 107.5C480 103 510 92 540 90C570 88 600 95 630 97.8C660 100.7 690 99.3 720 99.2C750 99 780 100 810 100.7C840 101.3 870 101.7 885 101.8L900 102L900 0L885 0C870 0 840 0 810 0C780 0 750 0 720 0C690 0 660 0 630 0C600 0 570 0 540 0C510 0 480 0 450 0C420 0 390 0 360 0C330 0 300 0 270 0C240 0 210 0 180 0C150 0 120 0 90 0C60 0 30 0 15 0L0 0Z" fill="#2752a5"></path><path d="M0 71L15 71.7C30 72.3 60 73.7 90 77C120 80.3 150 85.7 180 86C210 86.3 240 81.7 270 76.7C300 71.7 330 66.3 360 64.5C390 62.7 420 64.3 450 68.8C480 73.3 510 80.7 540 82C570 83.3 600 78.7 630 75.3C660 72 690 70 720 72C750 74 780 80 810 81.2C840 82.3 870 78.7 885 76.8L900 75L900 0L885 0C870 0 840 0 810 0C780 0 750 0 720 0C690 0 660 0 630 0C600 0 570 0 540 0C510 0 480 0 450 0C420 0 390 0 360 0C330 0 300 0 270 0C240 0 210 0 180 0C150 0 120 0 90 0C60 0 30 0 15 0L0 0Z" fill="#0045bc"></path><path d="M0 45L15 44.8C30 44.7 60 44.3 90 44.5C120 44.7 150 45.3 180 48.3C210 51.3 240 56.7 270 59.2C300 61.7 330 61.3 360 61.5C390 61.7 420 62.3 450 61.3C480 60.3 510 57.7 540 54.5C570 51.3 600 47.7 630 46.5C660 45.3 690 46.7 720 48C750 49.3 780 50.7 810 53.3C840 56 870 60 885 62L900 64L900 0L885 0C870 0 840 0 810 0C780 0 750 0 720 0C690 0 660 0 630 0C600 0 570 0 540 0C510 0 480 0 450 0C420 0 390 0 360 0C330 0 300 0 270 0C240 0 210 0 180 0C150 0 120 0 90 0C60 0 30 0 15 0L0 0Z" fill="#0032d0"></path><path d="M0 28L15 27.5C30 27 60 26 90 25.3C120 24.7 150 24.3 180 25.8C210 27.3 240 30.7 270 31.8C300 33 330 32 360 32.2C390 32.3 420 33.7 450 32.7C480 31.7 510 28.3 540 26.5C570 24.7 600 24.3 630 25.2C660 26 690 28 720 30.3C750 32.7 780 35.3 810 37C840 38.7 870 39.3 885 39.7L900 40L900 0L885 0C870 0 840 0 810 0C780 0 750 0 720 0C690 0 660 0 630 0C600 0 570 0 540 0C510 0 480 0 450 0C420 0 390 0 360 0C330 0 300 0 270 0C240 0 210 0 180 0C150 0 120 0 90 0C60 0 30 0 15 0L0 0Z" fill="#0d00dd"></path></svg>