<svg id="visual" viewBox="0 0 900 450" width="900" height="450" xmlns="http://www.w3.org/2000/svg" xmlns:xlink="http://www.w3.org/1999/xlink" version="1.1"><rect x="0" y="0" width="900" height="450" fill="#94d8ff"></rect><path d="M0 298L15 299.2C30 300.3 60 302.7 90 300.5C120 298.3 150 291.7 180 290.2C210 288.7 240 292.3 270 292.8C300 293.3 330 290.7 360 290.7C390 290.7 420 293.3 450 298.3C480 303.3 510 310.7 540 312.2C570 313.7 600 309.3 630 310.7C660 312 690 319 720 316C750 313 780 300 810 298.7C840 297.3 870 307.7 885 312.8L900 318L900 451L885 451C870 451 840 451 810 451C780 451 750 451 720 451C690 451 660 451 630 451C600 451 570 451 540 451C510 451 480 451 450 451C420 451 390 451 360 451C330 451 300 451 270 451C240 451 210 451 180 451C150 451 120 451 90 451C60 451 30 451 15 451L0 451Z" fill="#87afff"></path><path d="M0 336L15 336.7C30 337.3 60 338.7 90 337.2C120 335.7 150 331.3 180 327.2C210 323 240 319 270 318.5C300 318 330 321 360 321.2C390 321.3 420 318.7 450 317.7C480 316.7 510 317.3 540 321.8C570 326.3 600 334.7 630 335.5C660 336.3 690 329.7 720 326.2C750 322.7 780 322.3 810 325.8C840 329.3 870 336.7 885 340.3L900 344L900 451L885 451C870 451 840 451 810 451C780 451 750 451 720 451C690 451 660 451 630 451C600 451 570 451 540 451C510 451 480 451 450 451C420 451 390 451 360 451C330 451 300 451 270 451C240 451 210 451 180 451C150 451 120 451 90 451C60 451 30 451 15 451L0 451Z" fill="#6595fe"></path><path d="M0 353L15 354.5C30 356 60 359 90 356.8C120 354.7 150 347.3 180 343.2C210 339 240 338 270 338C300 338 330 339 360 338.5C390 338 420 336 450 340.5C480 345 510 356 540 358C570 360 600 353 630 350.2C660 347.3 690 348.7 720 348.8C750 349 780 348 810 347.3C840 346.7 870 346.3 885 346.2L900 346L900 451L885 451C870 451 840 451 810 451C780 451 750 451 720 451C690 451 660 451 630 451C600 451 570 451 540 451C510 451 480 451 450 451C420 451 390 451 360 451C330 451 300 451 270 451C240 451 210 451 180 451C150 451 120 451 90 451C60 451 30 451 15 451L0 451Z" fill="#4579fb"></path><path d="M0 377L15 376.3C30 375.7 60 374.3 90 371C120 367.7 150 362.3 180 362C210 361.7 240 366.3 270 371.3C300 376.3 330 381.7 360 383.5C390 385.3 420 383.7 450 379.2C480 374.7 510 367.3 540 366C570 364.7 600 369.3 630 372.7C660 376 690 378 720 376C750 374 780 368 810 366.8C840 365.7 870 369.3 885 371.2L900 373L900 451L885 451C870 451 840 451 810 451C780 451 750 451 720 451C690 451 660 451 630 451C600 451 570 451 540 451C510 451 480 451 450 451C420 451 390 451 360 451C330 451 300 451 270 451C240 451 210 451 180 451C150 451 120 451 90 451C60 451 30 451 15 451L0 451Z" fill="#255cf5"></path><path d="M0 403L15 403.2C30 403.3 60 403.7 90 403.5C120 403.3 150 402.7 180 399.7C210 396.7 240 391.3 270 388.8C300 386.3 330 386.7 360 386.5C390 386.3 420 385.7 450 386.7C480 387.7 510 390.3 540 393.5C570 396.7 600 400.3 630 401.5C660 402.7 690 401.3 720 400C750 398.7 780 397.3 810 394.7C840 392 870 388 885 386L900 384L900 451L885 451C870 451 840 451 810 451C780 451 750 451 720 451C690 451 660 451 630 451C600 451 570 451 540 451C510 451 480 451 450 451C420 451 390 451 360 451C330 451 300 451 270 451C240 451 210 451 180 451C150 451 120 451 90 451C60 451 30 451 15 451L0 451Z" fill="#083beb"></path><path d="M0 420L15 420.5C30 421 60 422 90 422.7C120 423.3 150 423.7 180 422.2C210 420.7 240 417.3 270 416.2C300 415 330 416 360 415.8C390 415.7 420 414.3 450 415.3C480 416.3 510 419.7 540 421.5C570 423.3 600 423.7 630 422.8C660 422 690 420 720 417.7C750 415.3 780 412.7 810 411C840 409.3 870 408.7 885 408.3L900 408L900 451L885 451C870 451 840 451 810 451C780 451 750 451 720 451C690 451 660 451 630 451C600 451 570 451 540 451C510 451 480 451 450 451C420 451 390 451 360 451C330 451 300 451 270 451C240 451 210 451 180 451C150 451 120 451 90 451C60 451 30 451 15 451L0 451Z" fill="#0d00dd"></path></svg>