<svg id="visual" viewBox="0 0 900 600" width="900" height="600" xmlns="http://www.w3.org/2000/svg" xmlns:xlink="http://www.w3.org/1999/xlink" version="1.1"><path d="M0 103L13.7 96C27.3 89 54.7 75 82 75C109.3 75 136.7 89 163.8 90C191 91 218 79 245.2 77C272.3 75 299.7 83 327 89C354.3 95 381.7 99 409 97C436.3 95 463.7 87 491 83C518.3 79 545.7 79 573 76C600.3 73 627.7 67 654.8 60C682 53 709 45 736.2 52C763.3 59 790.7 81 818 81C845.3 81 872.7 59 886.3 48L900 37L900 0L886.3 0C872.7 0 845.3 0 818 0C790.7 0 763.3 0 736.2 0C709 0 682 0 654.8 0C627.7 0 600.3 0 573 0C545.7 0 518.3 0 491 0C463.7 0 436.3 0 409 0C381.7 0 354.3 0 327 0C299.7 0 272.3 0 245.2 0C218 0 191 0 163.8 0C136.7 0 109.3 0 82 0C54.7 0 27.3 0 13.7 0L0 0Z" fill="#8dbaff"></path><path d="M0 301L13.7 277C27.3 253 54.7 205 82 189C109.3 173 136.7 189 163.8 185C191 181 218 157 245.2 152C272.3 147 299.7 161 327 168C354.3 175 381.7 175 409 180C436.3 185 463.7 195 491 212C518.3 229 545.7 253 573 245C600.3 237 627.7 197 654.8 170C682 143 709 129 736.2 149C763.3 169 790.7 223 818 241C845.3 259 872.7 241 886.3 232L900 223L900 35L886.3 46C872.7 57 845.3 79 818 79C790.7 79 763.3 57 736.2 50C709 43 682 51 654.8 58C627.7 65 600.3 71 573 74C545.7 77 518.3 77 491 81C463.7 85 436.3 93 409 95C381.7 97 354.3 93 327 87C299.7 81 272.3 73 245.2 75C218 77 191 89 163.8 88C136.7 87 109.3 73 82 73C54.7 73 27.3 87 13.7 94L0 101Z" fill="#609fff"></path><path d="M0 337L13.7 318C27.3 299 54.7 261 82 246C109.3 231 136.7 239 163.8 230C191 221 218 195 245.2 197C272.3 199 299.7 229 327 243C354.3 257 381.7 255 409 257C436.3 259 463.7 265 491 278C518.3 291 545.7 311 573 305C600.3 299 627.7 267 654.8 243C682 219 709 203 736.2 220C763.3 237 790.7 287 818 309C845.3 331 872.7 325 886.3 322L900 319L900 221L886.3 230C872.7 239 845.3 257 818 239C790.7 221 763.3 167 736.2 147C709 127 682 141 654.8 168C627.7 195 600.3 235 573 243C545.7 251 518.3 227 491 210C463.7 193 436.3 183 409 178C381.7 173 354.3 173 327 166C299.7 159 272.3 145 245.2 150C218 155 191 179 163.8 183C136.7 187 109.3 171 82 187C54.7 203 27.3 251 13.7 275L0 299Z" fill="#467dd7"></path><path d="M0 385L13.7 380C27.3 375 54.7 365 82 354C109.3 343 136.7 331 163.8 324C191 317 218 315 245.2 321C272.3 327 299.7 341 327 347C354.3 353 381.7 351 409 348C436.3 345 463.7 341 491 348C518.3 355 545.7 373 573 371C600.3 369 627.7 347 654.8 337C682 327 709 329 736.2 347C763.3 365 790.7 399 818 410C845.3 421 872.7 409 886.3 403L900 397L900 317L886.3 320C872.7 323 845.3 329 818 307C790.7 285 763.3 235 736.2 218C709 201 682 217 654.8 241C627.7 265 600.3 297 573 303C545.7 309 518.3 289 491 276C463.7 263 436.3 257 409 255C381.7 253 354.3 255 327 241C299.7 227 272.3 197 245.2 195C218 193 191 219 163.8 228C136.7 237 109.3 229 82 244C54.7 259 27.3 297 13.7 316L0 335Z" fill="#3d6fc3"></path><path d="M0 427L13.7 425C27.3 423 54.7 419 82 412C109.3 405 136.7 395 163.8 382C191 369 218 353 245.2 354C272.3 355 299.7 373 327 380C354.3 387 381.7 383 409 379C436.3 375 463.7 371 491 379C518.3 387 545.7 407 573 412C600.3 417 627.7 407 654.8 395C682 383 709 369 736.2 379C763.3 389 790.7 423 818 434C845.3 445 872.7 433 886.3 427L900 421L900 395L886.3 401C872.7 407 845.3 419 818 408C790.7 397 763.3 363 736.2 345C709 327 682 325 654.8 335C627.7 345 600.3 367 573 369C545.7 371 518.3 353 491 346C463.7 339 436.3 343 409 346C381.7 349 354.3 351 327 345C299.7 339 272.3 325 245.2 319C218 313 191 315 163.8 322C136.7 329 109.3 341 82 352C54.7 363 27.3 373 13.7 378L0 383Z" fill="#467dd7"></path><path d="M0 457L13.7 455C27.3 453 54.7 449 82 445C109.3 441 136.7 437 163.8 428C191 419 218 405 245.2 404C272.3 403 299.7 415 327 420C354.3 425 381.7 423 409 423C436.3 423 463.7 425 491 434C518.3 443 545.7 459 573 462C600.3 465 627.7 455 654.8 444C682 433 709 421 736.2 429C763.3 437 790.7 465 818 471C845.3 477 872.7 461 886.3 453L900 445L900 419L886.3 425C872.7 431 845.3 443 818 432C790.7 421 763.3 387 736.2 377C709 367 682 381 654.8 393C627.7 405 600.3 415 573 410C545.7 405 518.3 385 491 377C463.7 369 436.3 373 409 377C381.7 381 354.3 385 327 378C299.7 371 272.3 353 245.2 352C218 351 191 367 163.8 380C136.7 393 109.3 403 82 410C54.7 417 27.3 421 13.7 423L0 425Z" fill="#609fff"></path><path d="M0 601L13.7 601C27.3 601 54.7 601 82 601C109.3 601 136.7 601 163.8 601C191 601 218 601 245.2 601C272.3 601 299.7 601 327 601C354.3 601 381.7 601 409 601C436.3 601 463.7 601 491 601C518.3 601 545.7 601 573 601C600.3 601 627.7 601 654.8 601C682 601 709 601 736.2 601C763.3 601 790.7 601 818 601C845.3 601 872.7 601 886.3 601L900 601L900 443L886.3 451C872.7 459 845.3 475 818 469C790.7 463 763.3 435 736.2 427C709 419 682 431 654.8 442C627.7 453 600.3 463 573 460C545.7 457 518.3 441 491 432C463.7 423 436.3 421 409 421C381.7 421 354.3 423 327 418C299.7 413 272.3 401 245.2 402C218 403 191 417 163.8 426C136.7 435 109.3 439 82 443C54.7 447 27.3 451 13.7 453L0 455Z" fill="#8dbaff"></path></svg>